<svg xmlns="http://www.w3.org/2000/svg" width="20" height="20" fill="none" viewBox="0 0 20 20">
  <path fill="#253D4E" fill-rule="evenodd" d="M9.488 1.009a.833.833 0 0 1 1.024 0l7.5 5.833c.203.158.321.4.321.658v9.167a2.5 2.5 0 0 1-2.5 2.5H4.167a2.5 2.5 0 0 1-2.5-2.5V7.5c0-.257.118-.5.321-.658l7.5-5.833ZM3.333 7.907v8.76a.833.833 0 0 0 .834.833h11.666a.833.833 0 0 0 .834-.833v-8.76L10 2.722 3.333 7.907Z" clip-rule="evenodd"/>
  <path fill="#253D4E" fill-rule="evenodd" d="M6.667 10c0-.46.373-.833.833-.833h5c.46 0 .833.373.833.833v8.333a.833.833 0 1 1-1.666 0v-7.5H8.333v7.5a.833.833 0 1 1-1.666 0V10Z" clip-rule="evenodd"/>
</svg>
