<svg xmlns="http://www.w3.org/2000/svg" width="20" height="20" fill="none" viewBox="0 0 20 20">
  <path fill="#253D4E" fill-rule="evenodd" d="M18.004 4.337a.833.833 0 0 1 .33.663v10a.833.833 0 0 1-1.015.814l-15-3.334a.833.833 0 0 1-.652-.813v-2.5c0-.375.25-.703.61-.803l15-4.167c.25-.07.52-.018.727.14ZM3.334 9.8v1.198l13.333 2.963V6.096L3.333 9.8Z" clip-rule="evenodd"/>
  <path fill="#253D4E" fill-rule="evenodd" d="M5.055 11.863a.833.833 0 0 1 .582 1.025 1.673 1.673 0 1 0 3.226.89.833.833 0 1 1 1.607.444 3.342 3.342 0 0 1-5.273 1.746 3.34 3.34 0 0 1-1.167-3.523.833.833 0 0 1 1.025-.582Z" clip-rule="evenodd"/>
</svg>
