<svg xmlns="http://www.w3.org/2000/svg" width="20" height="20" fill="none" viewBox="0 0 20 20">
  <path fill="#253D4E" fill-rule="evenodd" d="M16.423 3.577a.833.833 0 0 1 0 1.179L4.756 16.422a.833.833 0 0 1-1.179-1.178L15.244 3.577a.833.833 0 0 1 1.179 0Zm-11.006.59a1.25 1.25 0 1 0 0 2.5 1.25 1.25 0 0 0 0-2.5ZM2.5 5.417a2.917 2.917 0 1 1 5.833 0 2.917 2.917 0 0 1-5.833 0Zm12.083 7.916a1.25 1.25 0 1 0 0 2.5 1.25 1.25 0 0 0 0-2.5Zm-2.916 1.25a2.917 2.917 0 1 1 5.833 0 2.917 2.917 0 0 1-5.833 0Z" clip-rule="evenodd"/>
</svg>
