<svg xmlns="http://www.w3.org/2000/svg" width="55" height="54" fill="none" viewBox="0 0 55 54">
  <path fill="#118700" d="M30.954 19.312c.31 0 7.576-.178 8.07-15.678a1.078 1.078 0 0 0-1.049-1.114 1.084 1.084 0 0 0-1.021.635c-.059.13-.091.269-.095.41-.421 13.217-5.85 13.587-5.905 13.587a1.085 1.085 0 0 0-1.083 1.08 1.079 1.079 0 0 0 1.083 1.08Z"/>
  <path fill="#78ED07" d="M30.223 7.237s-8.27 6.648-3.033 11.835l7.137 2.243s-7.447-7.827-4.104-14.078Z"/>
  <path fill="#118700" d="M34.327 22.395a1.085 1.085 0 0 0 .994-.653 1.077 1.077 0 0 0-.207-1.169c-.069-.073-6.864-7.353-3.936-12.828a1.077 1.077 0 0 0-.265-1.34 1.085 1.085 0 0 0-1.37-.009c-.201.162-4.934 4.016-5.165 8.456-.097 1.866.593 3.544 2.05 4.987.122.121.272.212.437.263l7.137 2.243c.105.033.215.05.325.05Zm-6.05-11.53c.033 3.177 1.631 6.255 3.06 8.378l-3.56-1.119c-.89-.953-1.295-1.988-1.236-3.156.075-1.465.855-2.915 1.736-4.103Z"/>
  <path fill="#78ED07" d="M30.315 19.642s8.638 1.397 14.47-2.354c0 0-.663 6.155-6.08 7.476 0 0-7.862 2.352-8.39-5.122Z"/>
  <path fill="#118700" d="M36.061 26.195c.676 0 1.373-.065 2.07-.193.293-.054.58-.107.831-.191v.002c6.086-1.484 6.87-8.128 6.9-8.41a1.077 1.077 0 0 0-.509-1.034 1.085 1.085 0 0 0-1.155.011c-3.13 2.014-7.195 2.437-10.052 2.437-2.132 0-3.644-.239-3.659-.24a1.088 1.088 0 0 0-1.177.665 1.062 1.062 0 0 0-.075.476c.29 4.117 2.779 6.477 6.826 6.477Zm2.333-2.465a9.307 9.307 0 0 1-2.332.305c-2.467 0-3.939-1.037-4.468-3.162.672.055 1.546.104 2.552.104 2.515 0 5.894-.308 8.974-1.603-.65 1.634-1.985 3.686-4.672 4.341l-.054.015Z"/>
  <path fill="#78ED07" d="M30.526 18.69s-8.36-2.579-11.912-8.524c0 0-2.15 5.808 2.113 9.393 0 0 5.995 5.592 9.8-.869Z"/>
  <path fill="#118700" d="M25.868 22.885c1.571 0 3.816-.633 5.592-3.648a1.078 1.078 0 0 0-.614-1.578c-.08-.025-8.01-2.536-11.302-8.046a1.082 1.082 0 0 0-1.59-.304 1.081 1.081 0 0 0-.356.483c-.098.266-2.353 6.548 2.412 10.576.288.262 2.851 2.517 5.858 2.517Zm2.963-3.657c-.854 1.006-1.831 1.497-2.963 1.497-2.242 0-4.38-1.936-4.401-1.955a1.043 1.043 0 0 0-.042-.037c-2.094-1.761-2.379-4.191-2.24-5.947 3.037 3.516 7.432 5.57 9.646 6.442Z"/>
  <path fill="#FC174D" d="M29.398 23.828c0 2.361 2.088 4.275 4.693 4.275 2.605 0 4.693-1.914 4.693-4.275v-.855c0-2.362-2.088-4.276-4.693-4.276-2.605 0-4.693 1.914-4.693 4.276v.855Z"/>
  <path fill="#A40000" d="M34.09 29.183c3.186 0 5.777-2.402 5.777-5.355v-.855c0-2.954-2.591-5.356-5.776-5.356-3.185 0-5.776 2.402-5.776 5.355v.855c0 2.954 2.591 5.356 5.776 5.356Zm0-9.406c1.991 0 3.61 1.433 3.61 3.195v.855c0 1.763-1.619 3.196-3.61 3.196-1.99 0-3.609-1.433-3.609-3.195v-.855c0-1.762 1.62-3.196 3.61-3.196Z"/>
  <path fill="#FC174D" d="M33.55 30.33c0 2.362 2.088 4.276 4.692 4.276 2.605 0 4.693-1.914 4.693-4.275v-.855c0-2.362-2.088-4.276-4.693-4.276-2.604 0-4.693 1.914-4.693 4.276v.855Z"/>
  <path fill="#A40000" d="M38.242 35.687c3.185 0 5.776-2.403 5.776-5.356v-.855c0-2.953-2.59-5.356-5.776-5.356-3.185 0-5.776 2.403-5.776 5.356v.855c0 2.953 2.591 5.356 5.776 5.356Zm0-9.407c1.99 0 3.61 1.434 3.61 3.196v.855c0 1.762-1.62 3.196-3.61 3.196-1.99 0-3.61-1.434-3.61-3.196v-.855c0-1.762 1.62-3.196 3.61-3.196Z"/>
  <path fill="#FC174D" d="M32.466 37.299c0 2.36 2.088 4.275 4.693 4.275 2.605 0 4.693-1.914 4.693-4.275v-.855c0-2.362-2.088-4.276-4.693-4.276-2.605 0-4.693 1.914-4.693 4.276v.855Z"/>
  <path fill="#A40000" d="M37.16 42.654c3.184 0 5.775-2.402 5.775-5.356v-.855c0-2.953-2.59-5.355-5.776-5.355-3.184 0-5.775 2.402-5.775 5.355v.855c0 2.954 2.59 5.356 5.775 5.356Zm0-9.406c1.99 0 3.61 1.433 3.61 3.196v.854c0 1.763-1.62 3.196-3.61 3.196-1.991 0-3.61-1.433-3.61-3.196v-.855c0-1.762 1.619-3.195 3.61-3.195Z"/>
  <path fill="#FC174D" d="M27.773 42.873c0 2.361 1.998 4.275 4.603 4.275 2.605 0 4.603-1.914 4.603-4.275v-.855c0-2.362-1.998-4.276-4.603-4.276-2.605 0-4.602 1.914-4.602 4.276v.855Z"/>
  <path fill="#A40000" d="M32.376 48.228c3.188 0 5.686-2.352 5.686-5.355v-.855c0-3.004-2.498-5.356-5.686-5.356-3.188 0-5.685 2.352-5.685 5.356v.855c0 3.003 2.497 5.355 5.685 5.355Zm0-9.406c1.974 0 3.52 1.404 3.52 3.196v.855c0 1.792-1.546 3.196-3.52 3.196-1.973 0-3.52-1.404-3.52-3.196v-.855c0-1.792 1.546-3.196 3.52-3.196Z"/>
  <path fill="#FC174D" d="M19.832 46.124c0 2.362 1.998 4.276 4.602 4.276 2.605 0 4.603-1.914 4.603-4.276v-.855c0-2.361-1.998-4.275-4.603-4.275-2.604 0-4.602 1.914-4.602 4.275v.855Z"/>
  <path fill="#A40000" d="M24.434 51.48c3.189 0 5.686-2.352 5.686-5.356v-.855c0-3.003-2.497-5.355-5.686-5.355-3.188 0-5.685 2.352-5.685 5.355v.855c0 3.004 2.497 5.356 5.685 5.356Zm0-9.406c1.974 0 3.52 1.403 3.52 3.195v.855c0 1.792-1.546 3.196-3.52 3.196-1.973 0-3.52-1.404-3.52-3.196v-.855c0-1.792 1.547-3.195 3.52-3.195Z"/>
  <path fill="#7902AA" d="M10.266 33.815c0 2.36 2.088 4.275 4.693 4.275 2.604 0 4.692-1.914 4.692-4.275v-.856c0-2.361-2.088-4.275-4.692-4.275-2.605 0-4.693 1.914-4.693 4.275v.856Z"/>
  <path fill="#56007A" d="M14.958 39.17c3.185 0 5.776-2.403 5.776-5.355v-.856c0-2.953-2.59-5.356-5.776-5.356-3.184 0-5.775 2.403-5.775 5.356v.856c0 2.953 2.59 5.355 5.775 5.355Zm0-9.406c1.99 0 3.61 1.433 3.61 3.195v.856c0 1.762-1.62 3.195-3.61 3.195-1.99 0-3.61-1.433-3.61-3.195v-.856c0-1.762 1.62-3.195 3.61-3.195Z"/>
  <path fill="#FC174D" d="M11.168 26.614c0 2.362 1.998 4.276 4.603 4.276 2.605 0 4.602-1.914 4.602-4.276v-.855c0-2.361-1.997-4.275-4.602-4.275-2.605 0-4.603 1.914-4.603 4.275v.855Z"/>
  <path fill="#A40000" d="M15.77 31.97c3.189 0 5.686-2.352 5.686-5.355v-.855c0-3.004-2.497-5.356-5.685-5.356-3.188 0-5.686 2.352-5.686 5.355v.856c0 3.003 2.498 5.355 5.686 5.355Zm0-9.406c1.974 0 3.52 1.404 3.52 3.195v.856c0 1.792-1.546 3.195-3.52 3.195-1.973 0-3.519-1.404-3.519-3.195v-.855c0-1.793 1.546-3.196 3.52-3.196Z"/>
  <path fill="#FC174D" d="M22.178 21.795c0 2.362 1.998 4.276 4.603 4.276 2.605 0 4.602-1.914 4.602-4.276v-.855c0-2.361-1.997-4.275-4.602-4.275-2.605 0-4.603 1.914-4.603 4.275v.855Z"/>
  <path fill="#A40000" d="M26.78 27.15c3.19 0 5.686-2.351 5.686-5.355v-.855c0-3.003-2.497-5.356-5.685-5.356-3.188 0-5.686 2.353-5.686 5.356v.855c0 3.003 2.498 5.356 5.686 5.356Zm0-9.405c1.975 0 3.52 1.403 3.52 3.195v.855c0 1.792-1.545 3.196-3.52 3.196-1.973 0-3.519-1.404-3.519-3.196v-.855c0-1.792 1.546-3.196 3.52-3.196Z"/>
  <path fill="#FC174D" d="M15.5 22.852c0 2.362 2.088 4.276 4.693 4.276 2.605 0 4.693-1.914 4.693-4.276v-.855c0-2.361-2.088-4.276-4.693-4.276-2.605 0-4.693 1.915-4.693 4.276v.855Z"/>
  <path fill="#A40000" d="M20.193 28.208c3.185 0 5.776-2.403 5.776-5.356v-.855c0-2.953-2.591-5.356-5.776-5.356-3.185 0-5.776 2.403-5.776 5.356v.855c0 2.953 2.59 5.356 5.776 5.356Zm0-9.407c1.99 0 3.61 1.434 3.61 3.196v.855c0 1.762-1.62 3.196-3.61 3.196-1.99 0-3.61-1.434-3.61-3.196v-.855c0-1.762 1.62-3.196 3.61-3.196Z"/>
  <path fill="#FC174D" d="M24.164 27.602c0 2.361 2.088 4.276 4.692 4.276 2.605 0 4.693-1.915 4.693-4.276v-.855c0-2.362-2.088-4.276-4.692-4.276-2.605 0-4.693 1.914-4.693 4.276v.855Z"/>
  <path fill="#A40000" d="M28.857 32.958c3.184 0 5.775-2.403 5.775-5.356v-.855c0-2.953-2.59-5.356-5.775-5.356-3.185 0-5.776 2.403-5.776 5.356v.855c0 2.953 2.59 5.356 5.776 5.356Zm0-9.407c1.99 0 3.61 1.434 3.61 3.196v.855c0 1.762-1.62 3.196-3.61 3.196-1.99 0-3.61-1.434-3.61-3.196v-.855c0-1.762 1.62-3.196 3.61-3.196Z"/>
  <path fill="#FC174D" d="M27.232 34.047c0 2.361 1.998 4.276 4.603 4.276 2.605 0 4.602-1.915 4.602-4.276v-.855c0-2.362-1.997-4.276-4.602-4.276-2.605 0-4.603 1.914-4.603 4.276v.855Z"/>
  <path fill="#A40000" d="M31.835 39.402c3.188 0 5.685-2.352 5.685-5.355v-.855c0-3.004-2.497-5.356-5.685-5.356-3.189 0-5.686 2.352-5.686 5.356v.855c0 3.003 2.497 5.355 5.686 5.355Zm0-9.406c1.973 0 3.52 1.404 3.52 3.196v.855c0 1.792-1.547 3.196-3.52 3.196-1.974 0-3.52-1.404-3.52-3.196v-.855c0-1.792 1.546-3.196 3.52-3.196Z"/>
  <path fill="#FC174D" d="M9.363 38.924c0 2.362 1.998 4.276 4.603 4.276 2.605 0 4.602-1.914 4.602-4.276v-.855c0-2.361-1.997-4.276-4.602-4.276-2.605 0-4.603 1.915-4.603 4.276v.855Z"/>
  <path fill="#A40000" d="M13.966 44.28c3.188 0 5.685-2.352 5.685-5.356v-.855c0-3.003-2.497-5.355-5.685-5.355-3.188 0-5.686 2.352-5.686 5.355v.855c0 3.004 2.498 5.356 5.686 5.356Zm0-9.406c1.973 0 3.52 1.403 3.52 3.195v.855c0 1.792-1.547 3.196-3.52 3.196-1.974 0-3.52-1.404-3.52-3.196v-.855c0-1.792 1.546-3.195 3.52-3.195Z"/>
  <path fill="#FC174D" d="M13.334 43.105c0 2.361 2.088 4.276 4.693 4.276 2.605 0 4.693-1.915 4.693-4.276v-.855c0-2.361-2.088-4.276-4.693-4.276-2.605 0-4.693 1.915-4.693 4.276v.855Z"/>
  <path fill="#A40000" d="M18.027 48.46c3.185 0 5.776-2.402 5.776-5.355v-.855c0-2.953-2.591-5.356-5.776-5.356-3.185 0-5.776 2.403-5.776 5.356v.855c0 2.953 2.591 5.356 5.776 5.356Zm0-9.406c1.99 0 3.61 1.434 3.61 3.196v.855c0 1.762-1.62 3.196-3.61 3.196-1.99 0-3.61-1.434-3.61-3.196v-.855c0-1.762 1.62-3.196 3.61-3.196Z"/>
  <path fill="#FC174D" d="M9.905 32.421c0 2.361 2.088 4.276 4.693 4.276 2.604 0 4.692-1.915 4.692-4.276v-.855c0-2.361-2.088-4.276-4.692-4.276-2.605 0-4.693 1.915-4.693 4.276v.855Z"/>
  <path fill="#A40000" d="M14.598 37.777c3.184 0 5.775-2.403 5.775-5.356v-.855c0-2.953-2.59-5.356-5.776-5.356-3.184 0-5.775 2.403-5.775 5.356v.855c0 2.953 2.59 5.356 5.776 5.356Zm0-9.407c1.99 0 3.61 1.434 3.61 3.196v.855c0 1.762-1.62 3.196-3.61 3.196-1.991 0-3.61-1.434-3.61-3.196v-.855c0-1.762 1.619-3.195 3.61-3.195Z"/>
  <path fill="#FC174D" d="M17.485 32.369c0 2.361 2.088 4.276 4.693 4.276 2.605 0 4.693-1.915 4.693-4.276v-.855c0-2.362-2.088-4.276-4.693-4.276-2.605 0-4.693 1.914-4.693 4.276v.855Z"/>
  <path fill="#A40000" d="M22.178 37.725c3.185 0 5.776-2.403 5.776-5.356v-.855c0-2.953-2.591-5.356-5.776-5.356-3.185 0-5.776 2.403-5.776 5.356v.855c0 2.953 2.591 5.356 5.776 5.356Zm0-9.407c1.99 0 3.61 1.434 3.61 3.196v.855c0 1.762-1.62 3.196-3.61 3.196-1.99 0-3.61-1.434-3.61-3.196v-.855c0-1.762 1.62-3.196 3.61-3.196Z"/>
  <path fill="#fff" d="M20.174 41.121a.899.899 0 0 1-.902.9.904.904 0 0 1-.903-.9.899.899 0 0 1 .903-.9.903.903 0 0 1 .902.9Z"/>
  <path fill="#FC174D" d="M20.373 41.711c0 2.361 1.998 4.276 4.603 4.276 2.604 0 4.602-1.915 4.602-4.276v-.855c0-2.361-1.998-4.275-4.602-4.275-2.605 0-4.603 1.914-4.603 4.275v.855Z"/>
  <path fill="#A40000" d="M24.976 47.067c3.188 0 5.685-2.352 5.685-5.355v-.856c0-3.003-2.497-5.355-5.685-5.355-3.188 0-5.686 2.352-5.686 5.355v.855c0 3.004 2.498 5.356 5.686 5.356Zm0-9.406c1.974 0 3.52 1.404 3.52 3.195v.856c0 1.791-1.546 3.195-3.52 3.195s-3.52-1.403-3.52-3.195v-.856c0-1.792 1.546-3.195 3.52-3.195Z"/>
  <path fill="#fff" d="M33.892 32.211a.897.897 0 0 1-.557.832.904.904 0 0 1-1.248-.832.899.899 0 0 1 .903-.9.904.904 0 0 1 .902.9Zm6.588-3.69a.898.898 0 0 1-.902.9.905.905 0 0 1-.834-.555.898.898 0 0 1 .488-1.177.904.904 0 0 1 1.248.832Zm-9.385-2.88a.899.899 0 0 1-.903.9.904.904 0 0 1-.902-.9.899.899 0 0 1 .902-.9.904.904 0 0 1 .902.9Zm-8.665-4.68a.897.897 0 0 1-.556.832.904.904 0 0 1-1.248-.832.899.899 0 0 1 .902-.9.904.904 0 0 1 .902.9Zm14.08 1.08a.899.899 0 0 1-.903.9.904.904 0 0 1-.903-.9.899.899 0 0 1 .903-.9.904.904 0 0 1 .902.9Zm-7.4-2.34a.897.897 0 0 1-.558.832.904.904 0 0 1-1.248-.832.897.897 0 0 1 .557-.831.904.904 0 0 1 1.248.831Zm10.648 16.11a.897.897 0 0 1-.557.832.903.903 0 0 1-1.179-1.176.9.9 0 0 1 .834-.556.905.905 0 0 1 .902.9Zm-15.793-5.04a.899.899 0 0 1-.903.9.904.904 0 0 1-.902-.9.899.899 0 0 1 .902-.9.904.904 0 0 1 .903.9Zm-7.852 0a.899.899 0 0 1-.902.9.904.904 0 0 1-.903-.9.899.899 0 0 1 .903-.9.904.904 0 0 1 .902.9Zm10.74 9.09a.897.897 0 0 1-.557.832.904.904 0 0 1-1.248-.832.897.897 0 0 1 .557-.831.904.904 0 0 1 1.248.831Zm7.4 1.26a.899.899 0 0 1-.902.9.905.905 0 0 1-.834-.555.897.897 0 0 1 .488-1.177.904.904 0 0 1 1.248.832Z"/>
</svg>
